# xmcd
#
# Track frame offsets:
# 150
# 14732
# 33707
# 48387
# 59912
# 75051
# 93763
# 107737
# 123860
# 142882
# 158353
# 175674
# 191076
# 203193
# 217240
#
# Disc length: 3108 seconds
#
#
# Revision: 2
# Processed by: cddbd v1.5.2PL0 Copyright (c) Steve Scherf et al.
# Submitted via: FreeRIP 2.945 
#
DISCID=ca0c220f
DTITLE=Lourenço e Lourival - Leitão à Pururuca
DYEAR=2005
DGENRE=Sertanejo
TTITLE0=Juiz Ladrão
TTITLE1=Riozinho
TTITLE2=Se o Passado Voltasse
TTITLE3=Espinho no Lençol
TTITLE4=Cruel Regresso (Fazenda Aliança)
TTITLE5=Chico Viola Morreu
TTITLE6=Bebo por Ela
TTITLE7=Leitão à Pururuca
TTITLE8=Menina da Aldeia
TTITLE9=O Ipê e o Prisioneiro
TTITLE10=O Menino do Cesto
TTITLE11=Saco de Ouro
TTITLE12=Só Filé
TTITLE13=O Retireiro
TTITLE14=Esperança do Povo
EXTD=
EXTT0=
EXTT1=
EXTT2=
EXTT3=
EXTT4=
EXTT5=
EXTT6=
EXTT7=
EXTT8=
EXTT9=
EXTT10=
EXTT11=
EXTT12=
EXTT13=
EXTT14=
PLAYORDER=
